# xmcd
#
# Track frame offsets:
#	150
#	20651
#	33112
#	51721
#	63236
#	77794
#	95250
#	119230
#	136155
#	147743
#	166056
#	184707
#	195173
#	210083
#	236180
#	251895
#	263632
#	280169
#	293069
#	311232
#	329615
#
# Disc length: 4533 seconds
#
# Revision: 1
# Processed by: cddbd v1.5.2PL0 Copyright (c) Steve Scherf et al.
# Submitted via: audiograbber 1.83.01
#
DISCID=3d11b315
DTITLE=Tina Jaxen - Child At Heart
DYEAR=1900
DGENRE=Country
TTITLE0=Take MeTo Tennessee
TTITLE1=Wanna Be  A Cowboy's Sweetheart
TTITLE2=Crossroad
TTITLE3=Walk On By
TTITLE4=Roller Coaster Of Emotions
TTITLE5=Child At Heart
TTITLE6=Alive
TTITLE7=Stupidly Happily In Love
TTITLE8=Blue
TTITLE9=What Gets Me The Most
TTITLE10=Storm Cloud
TTITLE11=Yodeling Farm Girl
TTITLE12=Summer Light
TTITLE13=Endless Love
TTITLE14=You Can Get Me So Easily Now
TTITLE15=End Up Dead
TTITLE16=You Should Have Trought It Through
TTITLE17=Some People
TTITLE18=Illusion
TTITLE19=Darcey Farrow
TTITLE20=Yodeling Cowgirls
EXTD=
EXTT0=
EXTT1=
EXTT2=
EXTT3=
EXTT4=
EXTT5=
EXTT6=
EXTT7=
EXTT8=
EXTT9=
EXTT10=
EXTT11=
EXTT12=
EXTT13=
EXTT14=
EXTT15=
EXTT16=
EXTT17=
EXTT18=
EXTT19=
EXTT20=
PLAYORDER=
